<?xml version="1.0" standalone="no"?><!DOCTYPE svg PUBLIC "-//W3C//DTD SVG 1.1//EN" "http://www.w3.org/Graphics/SVG/1.1/DTD/svg11.dtd"><svg t="1730004659707" class="icon" viewBox="0 0 1025 1024" version="1.1" xmlns="http://www.w3.org/2000/svg" p-id="14919" xmlns:xlink="http://www.w3.org/1999/xlink" width="200.1953125" height="200"><path d="M102.398601 921.601399m-102.398601 0a102.398601 102.398601 0 1 0 204.797201 0 102.398601 102.398601 0 1 0-204.797201 0Z" fill="#999999" p-id="14920"></path><path d="M837.791217 273.076929a187.730768 187.730768 0 0 0-46.932692 6.485245V273.076929A276.134893 276.134893 0 0 0 511.993003 0.013994a280.060173 280.060173 0 0 0-243.70867 139.944755 236.028774 236.028774 0 0 0-35.498181-3.413287A230.226187 230.226187 0 0 0 0 364.041019a228.690208 228.690208 0 0 0 193.533355 223.740943 304.123844 304.123844 0 0 0 578.893422 37.204825 187.730768 187.730768 0 0 0 65.193776 12.117167 182.098845 182.098845 0 1 0 0-364.027025z m-443.727269 255.996502h-22.869021v-90.96409c0-28.500944-8.703881-40.95944-29.183601-40.959441a58.196538 58.196538 0 0 0-41.983426 24.063671V529.073431h-22.186364v-147.453985h18.09042l2.218636 21.503706a71.508356 71.508356 0 0 1 49.663321-25.428986c30.890244 0 45.055384 19.967727 45.055384 57.684545z m162.131117 0h-18.773076l-1.877308-23.551678a63.999125 63.999125 0 0 1-49.151328 26.964964c-30.890244 0-44.714056-19.626398-44.714056-57.343216v-93.524055h22.186364v90.96409c0 28.500944 8.533217 40.618112 29.183601 40.618112 15.530454 0 26.7943-7.850559 41.471433-25.940979v-105.641223h22.186363z m75.6043 3.583951c-17.066433 0-24.063671-10.922517-24.063671-30.548916V311.647069h22.186364v191.997376c0 7.338566 3.071958 10.410524 6.826573 10.410524a21.67437 21.67437 0 0 0 5.11993 0l3.242622 17.066434a40.788776 40.788776 0 0 1-13.653146 1.535979z m76.116293 0c-17.066433 0-24.063671-10.922517-24.063671-30.548916V311.647069h22.186364v191.997376c0 7.338566 3.071958 10.410524 6.826573 10.410524a21.67437 21.67437 0 0 0 5.11993 0l3.242623 17.066434a40.788776 40.788776 0 0 1-13.823812 1.535979z" fill="#999999" p-id="14921"></path></svg>