<?xml version="1.0" standalone="no"?><!DOCTYPE svg PUBLIC "-//W3C//DTD SVG 1.1//EN" "http://www.w3.org/Graphics/SVG/1.1/DTD/svg11.dtd"><svg t="1731292379069" class="icon" viewBox="0 0 1024 1024" version="1.1" xmlns="http://www.w3.org/2000/svg" p-id="8949" xmlns:xlink="http://www.w3.org/1999/xlink" width="200" height="200"><path d="M902.485333 542.976h33.416534v33.416533h-33.416534zM902.485333 576.401067h33.416534v31.752533h-33.416534zM870.7328 511.232h31.752533v31.752533h-31.752533z" fill="#EF001E" p-id="8950"></path><path d="M870.7328 542.976h31.752533v33.416533h-31.752533zM870.7328 576.401067h31.752533v31.752533h-31.752533z" fill="#FFF300" p-id="8951"></path><path d="M870.7328 608.145067h31.752533v33.416533h-31.752533z" fill="#EF001E" p-id="8952"></path><path d="M837.316267 380.893867h33.416533v31.752533h-33.416533z" fill="#140700" p-id="8953"></path><path d="M837.316267 412.637867h33.416533v33.416533h-33.416533z" fill="#140700" p-id="8954"></path><path d="M837.316267 477.806933h33.416533v33.416534h-33.416533zM837.316267 511.232h33.416533v31.752533h-33.416533z" fill="#EF001E" p-id="8955"></path><path d="M837.316267 542.976h33.416533v33.416533h-33.416533zM837.316267 576.401067h33.416533v31.752533h-33.416533z" fill="#FFF300" p-id="8956"></path><path d="M837.316267 608.145067h33.416533v33.416533h-33.416533zM837.316267 641.5616h33.416533v31.752533h-33.416533z" fill="#EF001E" p-id="8957"></path><path d="M805.563733 380.893867h31.752534v31.752533h-31.752534z" fill="#140700" p-id="8958"></path><path d="M805.563733 412.637867h31.752534v33.416533h-31.752534z" fill="#140700" p-id="8959"></path><path d="M805.563733 446.062933h31.752534v31.752534h-31.752534z" fill="#EF001E" p-id="8960"></path><path d="M805.563733 477.806933h31.752534v33.416534h-31.752534zM805.563733 511.232h31.752534v31.752533h-31.752534z" fill="#FFF300" p-id="8961"></path><path d="M805.563733 542.976h31.752534v33.416533h-31.752534zM805.563733 576.401067h31.752534v31.752533h-31.752534z" fill="#FFF300" p-id="8962"></path><path d="M805.563733 608.145067h31.752534v33.416533h-31.752534z" fill="#EF001E" p-id="8963"></path><path d="M772.1472 412.637867h33.416533v33.416533h-33.416533zM772.1472 446.062933h33.416533v31.752534h-33.416533z" fill="#140700" p-id="8964"></path><path d="M772.1472 477.806933h33.416533v33.416534h-33.416533zM772.1472 511.232h33.416533v31.752533h-33.416533z" fill="#FFF300" p-id="8965"></path><path d="M772.1472 542.976h33.416533v33.416533h-33.416533zM772.1472 576.401067h33.416533v31.752533h-33.416533z" fill="#FFF300" p-id="8966"></path><path d="M740.4032 446.062933h31.752533v31.752534h-31.752533z" fill="#140700" p-id="8967"></path><path d="M740.4032 477.806933h31.752533v33.416534h-31.752533z" fill="#140700" p-id="8968"></path><path d="M740.4032 511.232h31.752533v31.752533h-31.752533z" fill="#EF001E" p-id="8969"></path><path d="M740.4032 542.976h31.752533v33.416533h-31.752533z" fill="#EF001E" p-id="8970"></path><path d="M706.978133 477.806933h33.416534v33.416534h-33.416534zM706.978133 511.232h33.416534v31.752533h-33.416534z" fill="#140700" p-id="8971"></path><path d="M675.234133 511.232h31.752534v31.752533h-31.752534z" fill="#140700" p-id="8972"></path><path d="M675.234133 542.976h31.752534v33.416533h-31.752534zM641.809067 542.976h33.416533v33.416533h-33.416533zM641.809067 576.401067h33.416533v31.752533h-33.416533z" fill="#140700" p-id="8973"></path><path d="M610.065067 576.401067h31.752533v31.752533h-31.752533z" fill="#140700" p-id="8974"></path><path d="M610.065067 608.145067h31.752533v33.416533h-31.752533zM610.065067 641.5616h31.752533v31.752533h-31.752533z" fill="#140700" p-id="8975"></path><path d="M610.065067 673.314133h31.752533v33.416534h-31.752533zM576.64 282.308267h33.416533v33.416533h-33.416533zM576.64 315.7248h33.416533v31.752533h-33.416533zM576.64 347.477333h33.416533v33.416534h-33.416533zM576.64 380.893867h33.416533v31.752533h-33.416533zM576.64 608.145067h33.416533v33.416533h-33.416533z" fill="#140700" p-id="8976"></path><path d="M576.64 641.5616h33.416533v31.752533h-33.416533z" fill="#EF001E" p-id="8977"></path><path d="M576.64 673.314133h33.416533v33.416534h-33.416533z" fill="#EF001E" p-id="8978"></path><path d="M576.64 706.730667h33.416533v33.416533h-33.416533zM544.896 185.386667h31.752533v31.752533h-31.752533zM544.896 217.1392h31.752533v33.416533h-31.752533zM544.896 250.555733h31.752533v31.752534h-31.752533z" fill="#140700" p-id="8979"></path><path d="M544.896 282.308267h31.752533v33.416533h-31.752533zM544.896 315.7248h31.752533v31.752533h-31.752533zM544.896 347.477333h31.752533v33.416534h-31.752533zM544.896 380.893867h31.752533v31.752533h-31.752533z" fill="#EF001E" p-id="8980"></path><path d="M544.896 412.637867h31.752533v33.416533h-31.752533zM544.896 446.062933h31.752533v31.752534h-31.752533zM544.896 576.401067h31.752533v31.752533h-31.752533z" fill="#140700" p-id="8981"></path><path d="M544.896 608.145067h31.752533v33.416533h-31.752533z" fill="#EEE98B" p-id="8982"></path><path d="M544.896 641.5616h31.752533v31.752533h-31.752533z" fill="#EF001E" p-id="8983"></path><path d="M544.896 673.314133h31.752533v33.416534h-31.752533z" fill="#EF001E" p-id="8984"></path><path d="M544.896 706.730667h31.752533v33.416533h-31.752533zM544.896 805.3248h31.752533v31.752533h-31.752533z" fill="#140700" p-id="8985"></path><path d="M544.896 837.0688h31.752533v33.416533h-31.752533zM544.896 870.485333h31.752533v31.752534h-31.752533zM511.479467 151.970133h33.416533v33.416534h-33.416533z" fill="#140700" p-id="8986"></path><path d="M511.479467 185.386667h33.416533v31.752533h-33.416533zM511.479467 217.1392h33.416533v33.416533h-33.416533zM511.479467 250.555733h33.416533v31.752534h-33.416533z" fill="#EF001E" p-id="8987"></path><path d="M511.479467 282.308267h33.416533v33.416533h-33.416533zM511.479467 315.7248h33.416533v31.752533h-33.416533z" fill="#140700" p-id="8988"></path><path d="M511.479467 347.477333h33.416533v33.416534h-33.416533zM511.479467 380.893867h33.416533v31.752533h-33.416533z" fill="#EEE98B" p-id="8989"></path><path d="M511.479467 412.637867h33.416533v33.416533h-33.416533zM511.479467 446.062933h33.416533v31.752534h-33.416533z" fill="#EF001E" p-id="8990"></path><path d="M511.479467 477.806933h33.416533v33.416534h-33.416533zM511.479467 542.976h33.416533v33.416533h-33.416533z" fill="#140700" p-id="8991"></path><path d="M511.479467 576.401067h33.416533v31.752533h-33.416533z" fill="#EF001E" p-id="8992"></path><path d="M511.479467 608.145067h33.416533v33.416533h-33.416533zM511.479467 641.5616h33.416533v31.752533h-33.416533z" fill="#EEE98B" p-id="8993"></path><path d="M511.479467 673.314133h33.416533v33.416534h-33.416533zM511.479467 740.155733h33.416533v31.752534h-33.416533z" fill="#140700" p-id="8994"></path><path d="M511.479467 771.899733h33.416533v33.416534h-33.416533zM511.479467 805.3248h33.416533v31.752533h-33.416533z" fill="#140700" p-id="8995"></path><path d="M511.479467 837.0688h33.416533v33.416533h-33.416533z" fill="#EF001E" p-id="8996"></path><path d="M511.479467 870.485333h33.416533v31.752534h-33.416533zM479.726933 120.2176h31.752534v31.752533h-31.752534z" fill="#140700" p-id="8997"></path><path d="M479.726933 151.970133h31.752534v33.416534h-31.752534z" fill="#EF001E" p-id="8998"></path><path d="M479.726933 185.386667h31.752534v31.752533h-31.752534zM479.726933 217.1392h31.752534v33.416533h-31.752534zM479.726933 250.555733h31.752534v31.752534h-31.752534zM479.726933 282.308267h31.752534v33.416533h-31.752534z" fill="#EEE98B" p-id="8999"></path><path d="M479.726933 315.7248h31.752534v31.752533h-31.752534z" fill="#140700" p-id="9000"></path><path d="M479.726933 347.477333h31.752534v33.416534h-31.752534z" fill="#FFFFFF" p-id="9001"></path><path d="M479.726933 380.893867h31.752534v31.752533h-31.752534z" fill="#EEE98B" p-id="9002"></path><path d="M479.726933 412.637867h31.752534v33.416533h-31.752534zM479.726933 446.062933h31.752534v31.752534h-31.752534z" fill="#EEE98B" p-id="9003"></path><path d="M479.726933 477.806933h31.752534v33.416534h-31.752534z" fill="#EF001E" p-id="9004"></path><path d="M479.726933 511.232h31.752534v31.752533h-31.752534z" fill="#140700" p-id="9005"></path><path d="M479.726933 542.976h31.752534v33.416533h-31.752534z" fill="#EF001E" p-id="9006"></path><path d="M479.726933 576.401067h31.752534v31.752533h-31.752534z" fill="#140700" p-id="9007"></path><path d="M479.726933 608.145067h31.752534v33.416533h-31.752534zM479.726933 641.5616h31.752534v31.752533h-31.752534z" fill="#140700" p-id="9008"></path><path d="M479.726933 673.314133h31.752534v33.416534h-31.752534zM479.726933 706.730667h31.752534v33.416533h-31.752534z" fill="#140700" p-id="9009"></path><path d="M479.726933 740.155733h31.752534v31.752534h-31.752534z" fill="#EEE98B" p-id="9010"></path><path d="M479.726933 771.899733h31.752534v33.416534h-31.752534zM479.726933 805.3248h31.752534v31.752533h-31.752534z" fill="#EF001E" p-id="9011"></path><path d="M479.726933 837.0688h31.752534v33.416533h-31.752534z" fill="#EF001E" p-id="9012"></path><path d="M479.726933 870.485333h31.752534v31.752534h-31.752534zM446.3104 120.2176h33.416533v31.752533h-33.416533z" fill="#140700" p-id="9013"></path><path d="M446.3104 151.970133h33.416533v33.416534h-33.416533z" fill="#EF001E" p-id="9014"></path><path d="M446.3104 185.386667h33.416533v31.752533h-33.416533zM446.3104 217.1392h33.416533v33.416533h-33.416533zM446.3104 250.555733h33.416533v31.752534h-33.416533zM446.3104 282.308267h33.416533v33.416533h-33.416533z" fill="#EEE98B" p-id="9015"></path><path d="M446.3104 315.7248h33.416533v31.752533h-33.416533z" fill="#140700" p-id="9016"></path><path d="M446.3104 347.477333h33.416533v33.416534h-33.416533z" fill="#FFFFFF" p-id="9017"></path><path d="M446.3104 380.893867h33.416533v31.752533h-33.416533z" fill="#EEE98B" p-id="9018"></path><path d="M446.3104 412.637867h33.416533v33.416533h-33.416533zM446.3104 446.062933h33.416533v31.752534h-33.416533z" fill="#EEE98B" p-id="9019"></path><path d="M446.3104 477.806933h33.416533v33.416534h-33.416533z" fill="#EEE98B" p-id="9020"></path><path d="M446.3104 511.232h33.416533v31.752533h-33.416533z" fill="#140700" p-id="9021"></path><path d="M446.3104 542.976h33.416533v33.416533h-33.416533z" fill="#140700" p-id="9022"></path><path d="M446.3104 576.401067h33.416533v31.752533h-33.416533z" fill="#EF001E" p-id="9023"></path><path d="M446.3104 608.145067h33.416533v33.416533h-33.416533zM446.3104 641.5616h33.416533v31.752533h-33.416533z" fill="#EF001E" p-id="9024"></path><path d="M446.3104 673.314133h33.416533v33.416534h-33.416533zM446.3104 706.730667h33.416533v33.416533h-33.416533z" fill="#EF001E" p-id="9025"></path><path d="M446.3104 740.155733h33.416533v31.752534h-33.416533z" fill="#EEE98B" p-id="9026"></path><path d="M446.3104 771.899733h33.416533v33.416534h-33.416533z" fill="#EEE98B" p-id="9027"></path><path d="M446.3104 805.3248h33.416533v31.752533h-33.416533z" fill="#EF001E" p-id="9028"></path><path d="M446.3104 837.0688h33.416533v33.416533h-33.416533z" fill="#EF001E" p-id="9029"></path><path d="M446.3104 870.485333h33.416533v31.752534h-33.416533zM414.557867 120.2176h31.752533v31.752533h-31.752533z" fill="#140700" p-id="9030"></path><path d="M414.557867 151.970133h31.752533v33.416534h-31.752533zM414.557867 185.386667h31.752533v31.752533h-31.752533zM414.557867 217.1392h31.752533v33.416533h-31.752533z" fill="#EF001E" p-id="9031"></path><path d="M414.557867 250.555733h31.752533v31.752534h-31.752533zM414.557867 282.308267h31.752533v33.416533h-31.752533z" fill="#EEE98B" p-id="9032"></path><path d="M414.557867 315.7248h31.752533v31.752533h-31.752533z" fill="#140700" p-id="9033"></path><path d="M414.557867 347.477333h31.752533v33.416534h-31.752533z" fill="#FFFFFF" p-id="9034"></path><path d="M414.557867 380.893867h31.752533v31.752533h-31.752533z" fill="#EEE98B" p-id="9035"></path><path d="M414.557867 412.637867h31.752533v33.416533h-31.752533zM414.557867 446.062933h31.752533v31.752534h-31.752533z" fill="#EEE98B" p-id="9036"></path><path d="M414.557867 477.806933h31.752533v33.416534h-31.752533z" fill="#140700" p-id="9037"></path><path d="M414.557867 511.232h31.752533v31.752533h-31.752533z" fill="#E5DF90" p-id="9038"></path><path d="M414.557867 542.976h31.752533v33.416533h-31.752533z" fill="#EF001E" p-id="9039"></path><path d="M414.557867 576.401067h31.752533v31.752533h-31.752533z" fill="#140700" p-id="9040"></path><path d="M414.557867 608.145067h31.752533v33.416533h-31.752533z" fill="#140700" p-id="9041"></path><path d="M414.557867 641.5616h31.752533v31.752533h-31.752533z" fill="#EF001E" p-id="9042"></path><path d="M414.557867 673.314133h31.752533v33.416534h-31.752533zM414.557867 706.730667h31.752533v33.416533h-31.752533zM414.557867 740.155733h31.752533v31.752534h-31.752533z" fill="#EF001E" p-id="9043"></path><path d="M414.557867 771.899733h31.752533v33.416534h-31.752533z" fill="#EEE98B" p-id="9044"></path><path d="M414.557867 805.3248h31.752533v31.752533h-31.752533z" fill="#140700" p-id="9045"></path><path d="M414.557867 837.0688h31.752533v33.416533h-31.752533zM414.557867 870.485333h31.752533v31.752534h-31.752533zM381.141333 86.801067h33.416534v33.416533h-33.416534z" fill="#140700" p-id="9046"></path><path d="M381.141333 120.2176h33.416534v31.752533h-33.416534zM381.141333 151.970133h33.416534v33.416534h-33.416534zM381.141333 185.386667h33.416534v31.752533h-33.416534zM381.141333 217.1392h33.416534v33.416533h-33.416534zM381.141333 250.555733h33.416534v31.752534h-33.416534z" fill="#EF001E" p-id="9047"></path><path d="M381.141333 282.308267h33.416534v33.416533h-33.416534z" fill="#EEE98B" p-id="9048"></path><path d="M381.141333 315.7248h33.416534v31.752533h-33.416534zM381.141333 347.477333h33.416534v33.416534h-33.416534z" fill="#140700" p-id="9049"></path><path d="M381.141333 380.893867h33.416534v31.752533h-33.416534z" fill="#EEE98B" p-id="9050"></path><path d="M381.141333 412.637867h33.416534v33.416533h-33.416534zM381.141333 446.062933h33.416534v31.752534h-33.416534z" fill="#EEE98B" p-id="9051"></path><path d="M381.141333 477.806933h33.416534v33.416534h-33.416534z" fill="#140700" p-id="9052"></path><path d="M381.141333 511.232h33.416534v31.752533h-33.416534z" fill="#E5DF90" p-id="9053"></path><path d="M381.141333 542.976h33.416534v33.416533h-33.416534z" fill="#EF001E" p-id="9054"></path><path d="M381.141333 576.401067h33.416534v31.752533h-33.416534z" fill="#140700" p-id="9055"></path><path d="M381.141333 608.145067h33.416534v33.416533h-33.416534z" fill="#FFFFFF" p-id="9056"></path><path d="M381.141333 641.5616h33.416534v31.752533h-33.416534z" fill="#140700" p-id="9057"></path><path d="M381.141333 673.314133h33.416534v33.416534h-33.416534zM381.141333 706.730667h33.416534v33.416533h-33.416534zM381.141333 740.155733h33.416534v31.752534h-33.416534z" fill="#EF001E" p-id="9058"></path><path d="M381.141333 771.899733h33.416534v33.416534h-33.416534zM349.3888 86.801067h31.752533v33.416533h-31.752533z" fill="#140700" p-id="9059"></path><path d="M349.3888 120.2176h31.752533v31.752533h-31.752533zM349.3888 151.970133h31.752533v33.416534h-31.752533zM349.3888 185.386667h31.752533v31.752533h-31.752533zM349.3888 217.1392h31.752533v33.416533h-31.752533zM349.3888 250.555733h31.752533v31.752534h-31.752533z" fill="#EF001E" p-id="9060"></path><path d="M349.3888 282.308267h31.752533v33.416533h-31.752533z" fill="#EEE98B" p-id="9061"></path><path d="M349.3888 315.7248h31.752533v31.752533h-31.752533zM349.3888 347.477333h31.752533v33.416534h-31.752533z" fill="#140700" p-id="9062"></path><path d="M349.3888 380.893867h31.752533v31.752533h-31.752533z" fill="#EEE98B" p-id="9063"></path><path d="M349.3888 412.637867h31.752533v33.416533h-31.752533zM349.3888 446.062933h31.752533v31.752534h-31.752533z" fill="#EEE98B" p-id="9064"></path><path d="M349.3888 477.806933h31.752533v33.416534h-31.752533z" fill="#140700" p-id="9065"></path><path d="M349.3888 511.232h31.752533v31.752533h-31.752533z" fill="#E5DF90" p-id="9066"></path><path d="M349.3888 542.976h31.752533v33.416533h-31.752533z" fill="#EF001E" p-id="9067"></path><path d="M349.3888 576.401067h31.752533v31.752533h-31.752533z" fill="#140700" p-id="9068"></path><path d="M349.3888 608.145067h31.752533v33.416533h-31.752533zM349.3888 641.5616h31.752533v31.752533h-31.752533z" fill="#FFFFFF" p-id="9069"></path><path d="M349.3888 673.314133h31.752533v33.416534h-31.752533z" fill="#140700" p-id="9070"></path><path d="M349.3888 706.730667h31.752533v33.416533h-31.752533zM349.3888 740.155733h31.752533v31.752534h-31.752533z" fill="#EF001E" p-id="9071"></path><path d="M349.3888 771.899733h31.752533v33.416534h-31.752533zM315.972267 86.801067h33.416533v33.416533h-33.416533z" fill="#140700" p-id="9072"></path><path d="M315.972267 120.2176h33.416533v31.752533h-33.416533zM315.972267 151.970133h33.416533v33.416534h-33.416533zM315.972267 185.386667h33.416533v31.752533h-33.416533zM315.972267 217.1392h33.416533v33.416533h-33.416533zM315.972267 250.555733h33.416533v31.752534h-33.416533z" fill="#EF001E" p-id="9073"></path><path d="M315.972267 282.308267h33.416533v33.416533h-33.416533z" fill="#EEE98B" p-id="9074"></path><path d="M315.972267 315.7248h33.416533v31.752533h-33.416533zM315.972267 347.477333h33.416533v33.416534h-33.416533z" fill="#140700" p-id="9075"></path><path d="M315.972267 380.893867h33.416533v31.752533h-33.416533z" fill="#EEE98B" p-id="9076"></path><path d="M315.972267 412.637867h33.416533v33.416533h-33.416533zM315.972267 446.062933h33.416533v31.752534h-33.416533z" fill="#EEE98B" p-id="9077"></path><path d="M315.972267 477.806933h33.416533v33.416534h-33.416533z" fill="#140700" p-id="9078"></path><path d="M315.972267 511.232h33.416533v31.752533h-33.416533z" fill="#E5DF90" p-id="9079"></path><path d="M315.972267 542.976h33.416533v33.416533h-33.416533z" fill="#EF001E" p-id="9080"></path><path d="M315.972267 576.401067h33.416533v31.752533h-33.416533z" fill="#140700" p-id="9081"></path><path d="M315.972267 608.145067h33.416533v33.416533h-33.416533z" fill="#FFFFFF" p-id="9082"></path><path d="M315.972267 641.5616h33.416533v31.752533h-33.416533z" fill="#140700" p-id="9083"></path><path d="M315.972267 673.314133h33.416533v33.416534h-33.416533zM315.972267 706.730667h33.416533v33.416533h-33.416533zM315.972267 740.155733h33.416533v31.752534h-33.416533z" fill="#EF001E" p-id="9084"></path><path d="M315.972267 771.899733h33.416533v33.416534h-33.416533zM284.219733 120.2176h31.752534v31.752533h-31.752534z" fill="#140700" p-id="9085"></path><path d="M284.219733 151.970133h31.752534v33.416534h-31.752534zM284.219733 185.386667h31.752534v31.752533h-31.752534zM284.219733 217.1392h31.752534v33.416533h-31.752534z" fill="#EF001E" p-id="9086"></path><path d="M284.219733 250.555733h31.752534v31.752534h-31.752534zM284.219733 282.308267h31.752534v33.416533h-31.752534z" fill="#EEE98B" p-id="9087"></path><path d="M284.219733 315.7248h31.752534v31.752533h-31.752534z" fill="#140700" p-id="9088"></path><path d="M284.219733 347.477333h31.752534v33.416534h-31.752534z" fill="#FFFFFF" p-id="9089"></path><path d="M284.219733 380.893867h31.752534v31.752533h-31.752534z" fill="#EEE98B" p-id="9090"></path><path d="M284.219733 412.637867h31.752534v33.416533h-31.752534zM284.219733 446.062933h31.752534v31.752534h-31.752534z" fill="#EEE98B" p-id="9091"></path><path d="M284.219733 477.806933h31.752534v33.416534h-31.752534z" fill="#140700" p-id="9092"></path><path d="M284.219733 511.232h31.752534v31.752533h-31.752534z" fill="#E5DF90" p-id="9093"></path><path d="M284.219733 542.976h31.752534v33.416533h-31.752534z" fill="#EF001E" p-id="9094"></path><path d="M284.219733 576.401067h31.752534v31.752533h-31.752534z" fill="#140700" p-id="9095"></path><path d="M284.219733 608.145067h31.752534v33.416533h-31.752534z" fill="#140700" p-id="9096"></path><path d="M284.219733 641.5616h31.752534v31.752533h-31.752534z" fill="#EF001E" p-id="9097"></path><path d="M284.219733 673.314133h31.752534v33.416534h-31.752534zM284.219733 706.730667h31.752534v33.416533h-31.752534zM284.219733 740.155733h31.752534v31.752534h-31.752534z" fill="#EF001E" p-id="9098"></path><path d="M284.219733 771.899733h31.752534v33.416534h-31.752534z" fill="#EEE98B" p-id="9099"></path><path d="M284.219733 805.3248h31.752534v31.752533h-31.752534z" fill="#140700" p-id="9100"></path><path d="M284.219733 837.0688h31.752534v33.416533h-31.752534zM284.219733 870.485333h31.752534v31.752534h-31.752534zM250.8032 120.2176h33.416533v31.752533h-33.416533z" fill="#140700" p-id="9101"></path><path d="M250.8032 151.970133h33.416533v33.416534h-33.416533z" fill="#EF001E" p-id="9102"></path><path d="M250.8032 185.386667h33.416533v31.752533h-33.416533zM250.8032 217.1392h33.416533v33.416533h-33.416533zM250.8032 250.555733h33.416533v31.752534h-33.416533zM250.8032 282.308267h33.416533v33.416533h-33.416533z" fill="#EEE98B" p-id="9103"></path><path d="M250.8032 315.7248h33.416533v31.752533h-33.416533z" fill="#140700" p-id="9104"></path><path d="M250.8032 347.477333h33.416533v33.416534h-33.416533z" fill="#FFFFFF" p-id="9105"></path><path d="M250.8032 380.893867h33.416533v31.752533h-33.416533z" fill="#EEE98B" p-id="9106"></path><path d="M250.8032 412.637867h33.416533v33.416533h-33.416533zM250.8032 446.062933h33.416533v31.752534h-33.416533z" fill="#EEE98B" p-id="9107"></path><path d="M250.8032 477.806933h33.416533v33.416534h-33.416533z" fill="#EEE98B" p-id="9108"></path><path d="M250.8032 511.232h33.416533v31.752533h-33.416533z" fill="#140700" p-id="9109"></path><path d="M250.8032 542.976h33.416533v33.416533h-33.416533z" fill="#140700" p-id="9110"></path><path d="M250.8032 576.401067h33.416533v31.752533h-33.416533z" fill="#EF001E" p-id="9111"></path><path d="M250.8032 608.145067h33.416533v33.416533h-33.416533zM250.8032 641.5616h33.416533v31.752533h-33.416533z" fill="#EF001E" p-id="9112"></path><path d="M250.8032 673.314133h33.416533v33.416534h-33.416533zM250.8032 706.730667h33.416533v33.416533h-33.416533z" fill="#EF001E" p-id="9113"></path><path d="M250.8032 740.155733h33.416533v31.752534h-33.416533z" fill="#EEE98B" p-id="9114"></path><path d="M250.8032 771.899733h33.416533v33.416534h-33.416533z" fill="#EEE98B" p-id="9115"></path><path d="M250.8032 805.3248h33.416533v31.752533h-33.416533z" fill="#EF001E" p-id="9116"></path><path d="M250.8032 837.0688h33.416533v33.416533h-33.416533z" fill="#EF001E" p-id="9117"></path><path d="M250.8032 870.485333h33.416533v31.752534h-33.416533zM219.050667 120.2176h31.752533v31.752533H219.050667z" fill="#140700" p-id="9118"></path><path d="M219.050667 151.970133h31.752533v33.416534H219.050667z" fill="#EF001E" p-id="9119"></path><path d="M219.050667 185.386667h31.752533v31.752533H219.050667zM219.050667 217.1392h31.752533v33.416533H219.050667zM219.050667 250.555733h31.752533v31.752534H219.050667zM219.050667 282.308267h31.752533v33.416533H219.050667z" fill="#EEE98B" p-id="9120"></path><path d="M219.050667 315.7248h31.752533v31.752533H219.050667z" fill="#140700" p-id="9121"></path><path d="M219.050667 347.477333h31.752533v33.416534H219.050667z" fill="#FFFFFF" p-id="9122"></path><path d="M219.050667 380.893867h31.752533v31.752533H219.050667z" fill="#EEE98B" p-id="9123"></path><path d="M219.050667 412.637867h31.752533v33.416533H219.050667zM219.050667 446.062933h31.752533v31.752534H219.050667z" fill="#EEE98B" p-id="9124"></path><path d="M219.050667 477.806933h31.752533v33.416534H219.050667z" fill="#EF001E" p-id="9125"></path><path d="M219.050667 511.232h31.752533v31.752533H219.050667z" fill="#140700" p-id="9126"></path><path d="M219.050667 542.976h31.752533v33.416533H219.050667z" fill="#EF001E" p-id="9127"></path><path d="M219.050667 576.401067h31.752533v31.752533H219.050667z" fill="#140700" p-id="9128"></path><path d="M219.050667 608.145067h31.752533v33.416533H219.050667zM219.050667 641.5616h31.752533v31.752533H219.050667z" fill="#140700" p-id="9129"></path><path d="M219.050667 673.314133h31.752533v33.416534H219.050667zM219.050667 706.730667h31.752533v33.416533H219.050667z" fill="#140700" p-id="9130"></path><path d="M219.050667 740.155733h31.752533v31.752534H219.050667z" fill="#EEE98B" p-id="9131"></path><path d="M219.050667 771.899733h31.752533v33.416534H219.050667zM219.050667 805.3248h31.752533v31.752533H219.050667z" fill="#EF001E" p-id="9132"></path><path d="M219.050667 837.0688h31.752533v33.416533H219.050667z" fill="#EF001E" p-id="9133"></path><path d="M219.050667 870.485333h31.752533v31.752534H219.050667zM185.634133 151.970133h33.416534v33.416534h-33.416534z" fill="#140700" p-id="9134"></path><path d="M185.634133 185.386667h33.416534v31.752533h-33.416534zM185.634133 217.1392h33.416534v33.416533h-33.416534zM185.634133 250.555733h33.416534v31.752534h-33.416534z" fill="#EF001E" p-id="9135"></path><path d="M185.634133 282.308267h33.416534v33.416533h-33.416534zM185.634133 315.7248h33.416534v31.752533h-33.416534z" fill="#140700" p-id="9136"></path><path d="M185.634133 347.477333h33.416534v33.416534h-33.416534zM185.634133 380.893867h33.416534v31.752533h-33.416534z" fill="#EEE98B" p-id="9137"></path><path d="M185.634133 412.637867h33.416534v33.416533h-33.416534zM185.634133 446.062933h33.416534v31.752534h-33.416534z" fill="#EF001E" p-id="9138"></path><path d="M185.634133 477.806933h33.416534v33.416534h-33.416534zM185.634133 542.976h33.416534v33.416533h-33.416534z" fill="#140700" p-id="9139"></path><path d="M185.634133 576.401067h33.416534v31.752533h-33.416534z" fill="#EF001E" p-id="9140"></path><path d="M185.634133 608.145067h33.416534v33.416533h-33.416534zM185.634133 641.5616h33.416534v31.752533h-33.416534z" fill="#EEE98B" p-id="9141"></path><path d="M185.634133 673.314133h33.416534v33.416534h-33.416534zM185.634133 740.155733h33.416534v31.752534h-33.416534z" fill="#140700" p-id="9142"></path><path d="M185.634133 771.899733h33.416534v33.416534h-33.416534zM185.634133 805.3248h33.416534v31.752533h-33.416534z" fill="#140700" p-id="9143"></path><path d="M185.634133 837.0688h33.416534v33.416533h-33.416534z" fill="#EF001E" p-id="9144"></path><path d="M185.634133 870.485333h33.416534v31.752534h-33.416534zM153.890133 185.386667h31.752534v31.752533h-31.752534zM153.890133 217.1392h31.752534v33.416533h-31.752534zM153.890133 250.555733h31.752534v31.752534h-31.752534z" fill="#140700" p-id="9145"></path><path d="M153.890133 282.308267h31.752534v33.416533h-31.752534zM153.890133 315.7248h31.752534v31.752533h-31.752534zM153.890133 347.477333h31.752534v33.416534h-31.752534zM153.890133 380.893867h31.752534v31.752533h-31.752534z" fill="#EF001E" p-id="9146"></path><path d="M153.890133 412.637867h31.752534v33.416533h-31.752534zM153.890133 446.062933h31.752534v31.752534h-31.752534zM153.890133 576.401067h31.752534v31.752533h-31.752534z" fill="#140700" p-id="9147"></path><path d="M153.890133 608.145067h31.752534v33.416533h-31.752534z" fill="#EEE98B" p-id="9148"></path><path d="M153.890133 641.5616h31.752534v31.752533h-31.752534z" fill="#EF001E" p-id="9149"></path><path d="M153.890133 673.314133h31.752534v33.416534h-31.752534z" fill="#EF001E" p-id="9150"></path><path d="M153.890133 706.730667h31.752534v33.416533h-31.752534zM153.890133 805.3248h31.752534v31.752533h-31.752534z" fill="#140700" p-id="9151"></path><path d="M153.890133 837.0688h31.752534v33.416533h-31.752534zM153.890133 870.485333h31.752534v31.752534h-31.752534zM120.465067 282.308267h33.416533v33.416533h-33.416533zM120.465067 315.7248h33.416533v31.752533h-33.416533zM120.465067 347.477333h33.416533v33.416534h-33.416533zM120.465067 380.893867h33.416533v31.752533h-33.416533zM120.465067 608.145067h33.416533v33.416533h-33.416533z" fill="#140700" p-id="9152"></path><path d="M120.465067 641.5616h33.416533v31.752533h-33.416533z" fill="#EF001E" p-id="9153"></path><path d="M120.465067 673.314133h33.416533v33.416534h-33.416533z" fill="#EF001E" p-id="9154"></path><path d="M120.465067 706.730667h33.416533v33.416533h-33.416533zM88.721067 641.5616h31.752533v31.752533h-31.752533z" fill="#140700" p-id="9155"></path><path d="M88.721067 673.314133h31.752533v33.416534h-31.752533z" fill="#140700" p-id="9156"></path></svg>